<svg width="1440" height="900" viewBox="0 0 1440 900" fill="none" xmlns="http://www.w3.org/2000/svg">
<rect width="1440" height="900" fill="url(#paint0_linear)"/>
<rect x="82" y="298" width="1512" height="945" transform="rotate(157 82 298)" fill="url(#paint1_linear)"/>
<rect opacity="0.88" x="793" y="58" width="993.6" height="621" transform="rotate(-128 793 58)" fill="url(#paint2_linear)"/>
<rect opacity="0.83" x="1280" y="266" width="1612.8" height="1008" transform="rotate(-83 1280 266)" fill="url(#paint3_linear)"/>
<rect opacity="0.94" x="225" y="487" width="1368" height="855" transform="rotate(-127 225 487)" fill="url(#paint4_linear)"/>
<rect opacity="0.92" x="762" y="379" width="1526.4" height="954" transform="rotate(106 762 379)" fill="url(#paint5_linear)"/>
<rect opacity="0.74" x="1136" y="326" width="1627.2" height="1017" transform="rotate(-127 1136 326)" fill="url(#paint6_linear)"/>
<rect opacity="0.86" x="91" y="618" width="1468.8" height="918" transform="rotate(-177 91 618)" fill="url(#paint7_linear)"/>
<rect opacity="0.71" x="668" y="752" width="1713.6" height="1071" transform="rotate(-108 668 752)" fill="url(#paint8_linear)"/>
<rect opacity="0.82" x="1354" y="718" width="1612.8" height="1008" transform="rotate(142 1354 718)" fill="url(#paint9_linear)"/>
<rect opacity="0.83" x="1280" y="266" width="1612.8" height="1008" transform="rotate(-83 1280 266)" fill="url(#paint10_linear)"/>
<rect opacity="0.83" x="933.198" y="1039.05" width="1612.8" height="1008" transform="rotate(-106.542 933.198 1039.05)" fill="url(#paint11_linear)" fill-opacity="0.4"/>
<rect width="1440" height="900" fill="#0A13ED" fill-opacity="0.23"/>
<defs>
<linearGradient id="paint0_linear" x1="0" y1="450" x2="1440" y2="450" gradientUnits="userSpaceOnUse">
<stop stop-color="#C33764"/>
<stop offset="1" stop-color="#1D2671"/>
</linearGradient>
<linearGradient id="paint1_linear" x1="82" y1="770.5" x2="1594" y2="770.5" gradientUnits="userSpaceOnUse">
<stop stop-color="#C33764"/>
<stop offset="1" stop-color="#1D2671"/>
</linearGradient>
<linearGradient id="paint2_linear" x1="793" y1="368.5" x2="1786.6" y2="368.5" gradientUnits="userSpaceOnUse">
<stop stop-color="#C33764"/>
<stop offset="1" stop-color="#1D2671"/>
</linearGradient>
<linearGradient id="paint3_linear" x1="1280" y1="770" x2="2892.8" y2="770" gradientUnits="userSpaceOnUse">
<stop stop-color="#C33764"/>
<stop offset="1" stop-color="#1D2671"/>
</linearGradient>
<linearGradient id="paint4_linear" x1="225" y1="914.5" x2="1593" y2="914.5" gradientUnits="userSpaceOnUse">
<stop stop-color="#C33764"/>
<stop offset="1" stop-color="#1D2671"/>
</linearGradient>
<linearGradient id="paint5_linear" x1="762" y1="856" x2="2288.4" y2="856" gradientUnits="userSpaceOnUse">
<stop stop-color="#C33764"/>
<stop offset="1" stop-color="#1D2671"/>
</linearGradient>
<linearGradient id="paint6_linear" x1="1136" y1="834.5" x2="2763.2" y2="834.5" gradientUnits="userSpaceOnUse">
<stop stop-color="#C33764"/>
<stop offset="1" stop-color="#1D2671"/>
</linearGradient>
<linearGradient id="paint7_linear" x1="91" y1="1077" x2="1559.8" y2="1077" gradientUnits="userSpaceOnUse">
<stop stop-color="#C33764"/>
<stop offset="1" stop-color="#1D2671"/>
</linearGradient>
<linearGradient id="paint8_linear" x1="668" y1="1287.5" x2="2381.6" y2="1287.5" gradientUnits="userSpaceOnUse">
<stop stop-color="#C33764"/>
<stop offset="1" stop-color="#1D2671"/>
</linearGradient>
<linearGradient id="paint9_linear" x1="1354" y1="1222" x2="2966.8" y2="1222" gradientUnits="userSpaceOnUse">
<stop stop-color="#C33764"/>
<stop offset="1" stop-color="#1D2671"/>
</linearGradient>
<linearGradient id="paint10_linear" x1="1280" y1="770" x2="2892.8" y2="770" gradientUnits="userSpaceOnUse">
<stop stop-color="#C33764"/>
<stop offset="1" stop-color="#1D2671"/>
</linearGradient>
<linearGradient id="paint11_linear" x1="933.198" y1="1543.05" x2="2546" y2="1543.05" gradientUnits="userSpaceOnUse">
<stop stop-color="#C33764"/>
<stop offset="1" stop-color="#1D2671"/>
</linearGradient>
</defs>
</svg>
