<svg width="702" height="687" viewBox="0 0 702 687" fill="none" xmlns="http://www.w3.org/2000/svg">
<path fill-rule="evenodd" clip-rule="evenodd" d="M344.933 -38.4545C416.626 -45.3295 474.453 14.2797 533.023 55.7999C592.058 97.6498 658.109 135.981 685.135 202.714C713.072 271.701 702.583 349.13 680.593 420.196C658.297 492.255 619.781 558.755 560.39 605.875C498.968 654.606 423.453 691.772 344.933 686.501C268.663 681.382 210.105 624.706 149.701 578.307C91.3834 533.511 13.9147 494.746 1.50094 422.697C-10.7743 351.452 55.2613 293.778 89.6984 230.056C116.958 179.615 141.971 131.159 181.567 89.5027C230.35 38.1826 274.095 -31.6615 344.933 -38.4545Z" fill="#41288A" fill-opacity="0.44"/>
<g opacity="0.8">
<path fill-rule="evenodd" clip-rule="evenodd" d="M375.258 221.173C378.123 220.823 381.18 220.947 383.844 222.077C389.509 224.482 391.119 231.174 391.041 236.614C390.957 242.468 389.714 248.863 394.165 253.58C396.211 255.748 398.756 257.408 400.765 259.617C402.912 261.977 404.597 264.677 405.844 267.577C408.134 272.903 409.258 279.167 407.164 284.754C405.32 289.674 400.681 294.114 401.683 299.708C402.729 305.543 408.612 310.004 412.29 314.351C416.453 319.269 420.286 325.556 420.916 332.006C421.519 338.188 418.828 344.44 414.699 349.113C406.448 358.451 394.045 363.028 381.54 363C376.23 362.988 370.219 362.748 365.637 359.895C364.22 359.013 363.473 358.023 362.631 356.648C361.877 355.414 360.88 354.612 359.725 353.739C357.19 351.822 355.359 349.239 354.19 346.347C349.652 335.114 353.279 321.218 359.631 311.243C361.136 308.88 362.369 306.605 361.637 303.789C360.874 300.848 358.999 298.196 357.34 295.669C355.701 293.17 353.83 290.787 352.549 288.087C351.207 285.257 350.829 282.294 351.066 279.198C351.512 273.381 354.023 268.013 357.578 263.336C361.002 258.83 365.022 254.518 365.031 248.615C365.041 242.357 360.858 236.791 362.64 230.429C363.378 227.795 364.86 225.092 367.249 223.513C369.539 221.998 372.564 221.502 375.258 221.173Z" fill="#DDE3E9"/>
<path fill-rule="evenodd" clip-rule="evenodd" d="M373.386 231.176C373.44 230.336 374.437 229.832 375.222 230.051C376.254 230.34 376.235 231.305 376.207 232.165C376.124 234.808 376.506 237.377 377.142 239.942C378.462 245.274 380.903 250.186 382.836 255.308C384.768 260.425 385.675 265.709 384.542 271.124C383.473 276.23 381.795 281.203 380.701 286.315C379.738 290.821 378.712 295.573 380.18 300.067C381.592 304.393 384.714 307.916 386.962 311.825C391.617 319.918 393.681 328.896 393.957 338.135C394.085 342.425 393.97 346.755 392.975 350.963C392.402 353.386 391.632 356.66 389.556 358.333C388.599 359.105 386.961 359.371 386.155 358.229C385.399 357.158 386.062 355.499 386.303 354.357C387.343 349.413 387.552 344.361 387.303 339.342C387.062 334.48 386.487 329.626 384.957 324.982C383.537 320.673 381.379 316.802 378.84 313.032C376.252 309.191 373.562 305.341 372.493 300.789C371.406 296.166 372.289 291.462 373.469 286.927C374.717 282.131 376.352 277.472 378.042 272.805C379.689 268.258 380.272 263.955 379.363 259.196C377.567 249.794 372.76 240.968 373.386 231.176Z" fill="#C5CFD6"/>
<path fill-rule="evenodd" clip-rule="evenodd" d="M450.892 232.582C454.437 233.659 457.958 235.395 460.485 238.118C465.858 243.909 464.209 252.661 461.243 259.053C458.05 265.933 453.212 272.849 455.94 280.743C457.193 284.372 459.301 287.659 460.49 291.316C461.761 295.224 462.309 299.294 462.239 303.372C462.11 310.862 460.118 318.855 454.708 324.373C449.945 329.232 442.158 332.07 440.377 339.206C438.518 346.651 443.061 354.988 445.078 362.041C447.36 370.024 448.533 379.453 445.862 387.409C443.303 395.034 436.842 401.028 429.528 404.406C414.915 411.156 397.949 410.117 383.296 403.578C377.075 400.801 370.151 397.391 366.285 391.633C365.09 389.853 364.736 388.294 364.476 386.23C364.243 384.378 363.497 382.911 362.605 381.278C360.644 377.692 359.862 373.684 360.02 369.656C360.634 354.011 372.234 339.464 384.956 330.972C387.971 328.96 390.618 326.912 391.249 323.2C391.909 319.325 391.111 315.213 390.501 311.361C389.899 307.554 388.964 303.763 388.889 299.902C388.811 295.858 389.933 292.157 391.848 288.619C395.445 281.972 401.227 276.93 407.87 273.247C414.267 269.7 421.262 266.692 424.393 259.715C427.712 252.32 425.747 243.561 431.2 236.964C433.458 234.233 436.625 231.807 440.262 231.182C443.749 230.583 447.558 231.57 450.892 232.582Z" fill="#DDE3E9"/>
<path fill-rule="evenodd" clip-rule="evenodd" d="M443.651 244.811C444.154 243.844 445.584 243.769 446.387 244.44C447.443 245.324 446.914 246.456 446.432 247.46C444.95 250.547 444.052 253.789 443.452 257.159C442.204 264.166 442.485 271.262 442.063 278.341C441.642 285.414 439.935 292.147 435.774 297.965C431.85 303.452 427.283 308.462 423.327 313.943C419.841 318.773 416.153 323.863 415.516 329.954C414.901 335.817 416.707 341.626 417.288 347.434C418.492 359.457 416.204 371.171 411.688 382.257C409.591 387.405 407.189 392.472 403.821 396.933C401.882 399.503 399.267 402.977 395.963 403.869C394.44 404.281 392.385 403.739 392.042 401.964C391.718 400.298 393.363 398.682 394.242 397.455C398.047 392.146 400.938 386.273 403.275 380.198C405.54 374.314 407.41 368.265 408.053 361.963C408.649 356.116 408.153 350.401 407.158 344.606C406.144 338.701 405.015 332.731 406.149 326.781C407.3 320.736 410.795 315.628 414.55 310.876C418.521 305.85 422.873 301.19 427.293 296.549C431.6 292.027 434.536 287.238 435.966 281.126C438.79 269.049 437.791 256.078 443.651 244.811Z" fill="#C5CFD6"/>
<path fill-rule="evenodd" clip-rule="evenodd" d="M341.306 277C347.2 277 352.382 280.124 355.953 284.558C360.133 289.748 360.977 296.086 362.675 302.272C363.519 305.35 364.972 308.406 367.517 310.498C369.833 312.4 372.772 312.78 375.543 313.71C381.082 315.567 385.555 320.041 387.321 325.499C389.476 332.158 387.193 338.873 387.586 345.622C387.947 351.819 394.058 355.685 398.974 358.656C403.821 361.586 408.189 364.328 409.649 370.035C411.197 376.088 411.716 382.844 409.572 388.823C406.002 398.779 395.552 403.163 385.456 403.842C376.293 404.459 364.772 403.491 357.891 396.84C353.773 392.86 352.282 387.293 352.467 381.755C352.582 378.311 353.264 374.899 354.146 371.571C354.771 369.213 355.616 366.864 355.856 364.427C356.496 357.942 350.503 356.697 345.401 354.916C338.918 352.654 334.38 348.38 331.224 342.425C328.285 336.881 327.052 330.658 328.814 324.554C329.714 321.437 331.346 318.61 333.559 316.205C334.533 315.146 335.907 314.263 336.786 313.151C337.607 312.112 337.428 310.766 337.145 309.55C335.837 303.931 331.762 299.278 330.305 293.668C328.989 288.605 329.767 282.304 334.395 279.038C336.395 277.627 338.862 277.016 341.306 277Z" fill="#C5CFD6"/>
<path fill-rule="evenodd" clip-rule="evenodd" d="M349.338 291.641C355.585 298.296 357.283 307.325 357.781 316.076C358.061 320.983 357.77 326.159 359.212 330.919C360.445 334.993 363.337 338.107 366.318 341.051C372.319 346.975 379.011 352.999 380.766 361.574C381.796 366.606 381.101 371.804 382.524 376.78C383.817 381.304 386.096 385.748 388.867 389.568C391.098 392.645 394.004 395 396.443 397.867C397.187 398.743 398.253 400.031 397.946 401.267C397.586 402.714 395.743 403.172 394.435 402.945C391.386 402.415 388.819 399.503 386.825 397.386C383.91 394.291 381.432 390.962 379.419 387.227C377.183 383.08 375.383 378.679 374.614 374.026C373.816 369.199 374.213 364.168 372.391 359.535C369.324 351.74 361.886 347.14 356.508 341.064C349.808 333.494 350.807 324.072 351.493 314.759C351.87 309.641 352.245 303.862 349.659 299.189C348.672 297.406 346.471 295.743 346.047 293.715C345.658 291.858 347.78 289.981 349.338 291.641Z" fill="#AFB9C5"/>
<path fill-rule="evenodd" clip-rule="evenodd" d="M356 401C356 439.058 362.211 459 395 459C427.789 459 434 439.058 434 401H356Z" fill="#89C5CC"/>
</g>
<path fill-rule="evenodd" clip-rule="evenodd" d="M179.262 99.4901C174.654 94.0814 171.536 87.4529 172.057 80.0255C173.558 58.625 203.349 63.3328 209.143 74.1339C214.938 84.9351 214.25 112.333 206.76 114.263C203.774 115.033 197.411 113.147 190.935 109.244L195 138H171L179.262 99.4901Z" fill="#EDC8A6"/>
<path fill-rule="evenodd" clip-rule="evenodd" d="M187.569 97.9853C184.593 103.698 180.477 108 176.364 108C168.554 108 163 97.5573 163 86.3296C163 85.9351 163.008 85.5432 163.023 85.1543C154.761 90.8241 148.393 102 137.461 102C122.587 102 116.68 72 137.461 72C151.593 72 158.545 74.0605 164.535 77.1074C165.717 73.7763 167.519 70.9757 169.722 69.0199C170.252 68.4233 171.065 67.8524 172.113 67.3232C172.754 66.9725 173.417 66.687 174.099 66.472C177.712 65.1443 182.945 64.2078 188.791 64.0037C189.882 63.9655 190.954 63.9544 192 63.9684C192.017 58.4601 196.488 54 202 54C207.523 54 212 58.4772 212 64C212 69.3411 207.813 73.7042 202.542 73.9856C199.527 74.916 195.652 75.5991 191.356 75.8871C191.773 77.4558 192 79.2378 192 81.2516C192 83.0297 191.804 84.9155 191.442 86.8303C190.511 85.7228 189.265 85 188 85C184.462 85 182 87.9101 182 91C182 94.9215 184.264 97.7584 187.569 97.9853Z" fill="#100F33"/>
<path fill-rule="evenodd" clip-rule="evenodd" d="M158.783 242L207.865 366.227L240.784 471.25H253.783L203.457 242L158.783 242Z" fill="#997659"/>
<path fill-rule="evenodd" clip-rule="evenodd" d="M148.9 242C148.377 285.654 140.755 344.427 139.537 347.149C138.725 348.963 110.699 372.032 55.459 416.358L64.4122 425.939C129.591 387.935 163.688 366.399 166.704 361.331C171.228 353.728 185.958 283.763 197.783 242H148.9Z" fill="#B28B67"/>
<path fill-rule="evenodd" clip-rule="evenodd" d="M54.2615 413.159C51.2546 414.222 49.1832 415.23 48.0474 416.183C46.666 417.342 44.8433 419.264 42.5793 421.948C43.924 423.55 56.0088 437.952 78.8337 465.154C83.4877 463.162 84.9478 460.833 83.2139 458.165C81.4801 455.498 80.0611 453.264 78.957 451.464L71.0589 423.87C70.9069 423.339 70.3533 423.032 69.8223 423.184C69.8133 423.186 69.8042 423.189 69.7952 423.192L65.5808 424.529C62.6569 423.166 60.6075 421.784 59.4327 420.384C58.4782 419.247 57.6194 417.29 56.8564 414.515L56.8564 414.515C56.5635 413.45 55.4628 412.824 54.3977 413.117C54.3518 413.129 54.3064 413.144 54.2615 413.159Z" fill="#E4E4E4"/>
<path fill-rule="evenodd" clip-rule="evenodd" d="M235.461 466.402C234.343 469.388 233.783 471.623 233.783 473.106C233.783 474.909 234.084 477.54 234.684 481C236.776 481 255.577 481 291.086 481C292.552 476.155 291.706 473.539 288.548 473.152C285.39 472.766 282.767 472.417 280.678 472.106L254.463 460.419C253.959 460.194 253.367 460.421 253.143 460.925C253.139 460.934 253.135 460.942 253.131 460.951L251.446 465.039C248.523 466.403 246.148 467.085 244.32 467.085C242.835 467.085 240.784 466.485 238.168 465.285L238.168 465.285C237.164 464.825 235.976 465.266 235.516 466.27C235.496 466.313 235.478 466.357 235.461 466.402Z" fill="#E4E4E4"/>
<path fill-rule="evenodd" clip-rule="evenodd" d="M191.783 460.433L253.588 453.725L207.783 242H152.427L191.783 460.433Z" fill="#69A1AC"/>
<path fill-rule="evenodd" clip-rule="evenodd" d="M68.2431 400.9L108.783 448.886C151.483 402.25 176.377 371.82 183.466 357.596C190.554 343.372 196.926 304.84 202.582 242H140.261C137.172 297.284 135.089 326.212 134.014 328.785C132.938 331.357 111.015 355.396 68.2431 400.9Z" fill="#89C5CC"/>
<path fill-rule="evenodd" clip-rule="evenodd" d="M214.414 162.7L249.124 143.69C254.896 136.836 260.583 131.512 266.185 127.72C267.897 127.005 270.89 126.573 268.091 131.542C265.291 136.51 262.57 141.863 263.996 143.394C265.423 144.924 268.979 142.786 270.681 145.329C271.815 147.025 265.739 149.704 252.453 153.365L227.232 176.458L214.414 162.7ZM268.776 178.74L284.023 170.364C286.162 162.224 288.719 158.128 291.694 158.077C293.98 157.014 290 167.3 294.333 166.408C298.665 165.516 309.24 157.651 311.063 159.248C313.758 161.61 311.355 168.864 308.523 172.473C303.229 179.218 298.847 181.524 288.015 184.544C282.351 186.123 276.228 189.289 269.644 194.04L268.776 178.74Z" fill="#EDC8A6"/>
<path fill-rule="evenodd" clip-rule="evenodd" d="M197.51 158.465C209.668 158.337 225.88 155.769 243.179 144.789L249.972 159.939C238.04 171.78 221.262 181.51 206.592 181.098C195.031 180.773 189.123 166.789 197.51 158.465Z" fill="#BC7E06"/>
<path fill-rule="evenodd" clip-rule="evenodd" d="M213.88 182.761C226.787 185.98 248.431 182.184 278.812 171.373C286.348 186.964 289.831 198.078 289.263 204.717C263.2 218.331 240.863 224.401 222.459 224.802C223.044 235.721 221.715 246.112 217.25 255.606C208.071 275.124 154.321 257.048 136.249 260.606C124.932 223.851 146.814 208.914 146.832 185.397C146.851 159.642 167.531 120 170.573 120L198.32 120C199.851 139.669 207.557 161.346 213.88 182.761Z" fill="#F7AF23"/>
<path fill-rule="evenodd" clip-rule="evenodd" d="M539.738 275.49C544.346 270.081 547.464 263.453 546.943 256.025C545.442 234.625 515.651 239.333 509.857 250.134C504.062 260.935 504.75 288.333 512.24 290.263C515.226 291.033 521.589 289.147 528.065 285.244L524 314H548L539.738 275.49Z" fill="#F0C1AC"/>
<path fill-rule="evenodd" clip-rule="evenodd" d="M523.536 237.685C526.699 237.167 535.216 236.81 536.787 236.81C537.79 236.81 538.878 237.039 539.473 236.118C539.959 235.363 539.781 234.087 539.926 233.211C540.095 232.193 540.335 231.189 540.577 230.187C541.267 227.337 542.31 224.625 543.769 222.079C546.507 217.302 550.519 213.56 555.583 211.383C561.176 208.979 567.504 208.428 573.52 208.916C579.957 209.438 585.784 211.563 591.862 213.562C597.654 215.468 603.72 216.218 609.778 215.288C615.882 214.35 620.493 211.042 625.641 207.902C630.911 204.688 636.934 202.586 643.165 203.069C648.98 203.52 654.341 205.922 659.15 209.129C663.649 212.131 667.362 215.742 669.458 220.824C671.713 226.291 671.711 232.292 668.003 237.123C662.628 244.127 652.65 245.938 644.349 245.758C639.547 245.654 634.832 244.777 630.299 243.183C624.253 241.056 619.029 237.452 613.373 234.528C610.719 233.156 607.975 232.029 605.099 231.217C602.309 230.429 599.56 230.067 597.034 231.753C594.361 233.537 591.966 235.289 588.908 236.405C585.974 237.476 582.867 238.075 579.742 238.051C573.661 238.004 567.667 236.109 561.761 234.84C556.946 233.806 551.793 232.774 546.883 233.769C544.834 234.184 541.841 235.041 541.101 237.17C553.556 239.427 558.447 254.83 554.936 266.137C553.041 272.24 541.65 279.374 537.221 276.166C534.415 274.133 536.119 271.465 537.221 269.703C539.332 266.33 540.055 261.997 536.148 259.648C532.778 257.622 529.235 262.433 529.168 262.427C528.242 262.354 520.24 257.829 514.726 251.224C509.287 251.547 508.461 247.96 509.76 245.027C511.059 242.094 519.166 238.402 523.536 237.685Z" fill="#D14222"/>
<path d="M558 571C515.474 571 481 538.093 481 497.5C481 456.907 515.474 424 558 424C600.526 424 635 456.907 635 497.5C635 538.093 600.526 571 558 571Z" fill="#221146"/>
<path fill-rule="evenodd" clip-rule="evenodd" d="M412.491 559.66C425.304 531.302 434.57 506.608 438.289 493.58C444.657 471.273 449.502 451.643 450.727 444.313C453.647 426.832 428.265 425.814 424.91 434.502C419.832 447.651 410.967 490.853 400.315 556.107L412.491 559.66ZM561.112 470.664C549.356 466.017 508.188 451.475 488.333 447.361C482.627 446.179 477.097 445.081 471.898 444.088C456.444 441.138 448.437 469.017 463.321 471.16C500.388 476.494 552.937 482.003 557.434 482.622C563.737 483.488 568.5 473.584 561.112 470.664Z" fill="#F0C1AC"/>
<path fill-rule="evenodd" clip-rule="evenodd" d="M462.413 436.416L526 404.047V397H518.438C456.92 412.676 425.485 422.722 424.131 427.138C424.117 427.185 424.103 427.233 424.091 427.281C424.06 427.321 424.03 427.362 424 427.403C411.808 444.17 404.507 526.027 402.111 532.156L425.472 535.641C434.409 502.503 463 479.418 462.241 439.729C462.446 438.565 462.497 437.461 462.413 436.416Z" fill="#141F79"/>
<path fill-rule="evenodd" clip-rule="evenodd" d="M520.717 455.64C526.535 454.476 531.893 453.436 536.477 452.632C566.091 447.438 574.726 431.586 569.62 397H515.058C506.145 399.56 459.826 418.985 435.793 429.316C419.887 436.154 424.901 460.804 433.909 467.219C433.958 467.613 434.12 467.88 434.409 468C482.863 488.083 521.195 477.545 534 480.912L539.923 462.228L520.717 455.64Z" fill="#1C2B9E"/>
<path fill-rule="evenodd" clip-rule="evenodd" d="M557.092 467.694C560.267 467.997 562.521 468.474 563.853 469.124C565.474 469.915 567.707 471.338 570.553 473.395C569.636 475.275 561.395 492.173 545.829 524.088C540.831 523.282 538.851 521.374 539.888 518.367C540.925 515.359 541.761 512.849 542.397 510.835L543.385 482.15C543.404 481.598 543.867 481.166 544.419 481.185C544.428 481.185 544.438 481.186 544.447 481.186L548.86 481.463C551.367 479.434 553.021 477.598 553.823 475.955C554.473 474.62 554.833 472.514 554.902 469.637L554.902 469.637C554.929 468.532 555.845 467.659 556.95 467.685C556.997 467.686 557.045 467.689 557.092 467.694Z" fill="#E4E4E4"/>
<path fill-rule="evenodd" clip-rule="evenodd" d="M418.322 554.402C419.441 557.388 420 559.623 420 561.106C420 562.909 419.7 565.54 419.099 569C417.007 569 398.206 569 362.697 569C361.231 564.155 362.077 561.539 365.235 561.152C368.393 560.766 371.016 560.417 373.105 560.106L399.32 548.419C399.824 548.194 400.416 548.421 400.641 548.925C400.644 548.934 400.648 548.942 400.652 548.951L402.337 553.039C405.26 554.403 407.636 555.085 409.463 555.085C410.948 555.085 412.999 554.485 415.616 553.285L415.616 553.285C416.62 552.825 417.807 553.266 418.267 554.27C418.287 554.313 418.305 554.357 418.322 554.402Z" fill="#E4E4E4"/>
<path fill-rule="evenodd" clip-rule="evenodd" d="M464 369.617L427.765 353.704C421.418 347.379 415.289 342.572 409.377 339.282C407.61 338.719 404.59 338.549 407.812 343.255C411.034 347.961 414.211 353.056 412.924 354.705C411.636 356.355 407.907 354.534 406.434 357.216C405.451 359.004 411.738 361.143 425.293 363.633L452.43 384.439L464 369.617ZM610.492 374L590 378.066C610.608 416.471 621.66 436.826 623.155 439.13C626.52 444.315 623.38 453.817 622.221 458.821C629.496 460.515 626.627 449.565 635.833 451.851C644.236 453.938 651.361 459.293 659.196 452.071C660.159 451.183 660.865 448.407 657.58 446.984C649.397 443.437 637.308 436.796 635.348 434.218C632.674 430.702 624.389 410.63 610.492 374Z" fill="#F0C1AC"/>
<path fill-rule="evenodd" clip-rule="evenodd" d="M534.305 297.332L525.658 295.849C506.824 314.119 499.138 358.012 486.586 363.822C474.719 369.316 457.896 364 437.9 356.822L431.776 370.505C449.945 390.161 488.651 406.767 504.34 397.287C529.424 382.13 535.214 327.994 534.305 297.332Z" fill="#095853"/>
<path fill-rule="evenodd" clip-rule="evenodd" d="M572 406C537.328 406 511.824 406 495.489 406C491.992 406 492.651 400.952 493.157 398.404C498.989 369.004 521.759 337.312 521.759 295.461L543.828 292C562.083 321.358 568.395 357.505 572 406Z" fill="#252729"/>
<path fill-rule="evenodd" clip-rule="evenodd" d="M579.631 376.233C595.229 404.368 608.339 424.623 618.963 437L635 433.859C624.669 369.791 594.753 322.504 545.252 292H541.269L536.514 292C516.701 359.537 511.239 404.537 520.128 427H589C587.91 410.563 584.417 393.181 579.631 376.233H579.631Z" fill="#20928B"/>
<path fill-rule="evenodd" clip-rule="evenodd" d="M603.738 333.49C608.346 328.082 611.464 321.453 610.943 314.026C609.442 292.625 579.651 297.333 573.857 308.134C568.062 318.935 568.75 346.333 576.24 348.264C579.226 349.034 585.589 347.148 592.065 343.245L588 372H612L603.738 333.49Z" fill="#7B420D"/>
<path fill-rule="evenodd" clip-rule="evenodd" d="M563.224 293.161C563.721 291.414 565.058 289.918 566.86 289.474C567.296 289.367 567.748 289.323 568.197 289.341C568.358 289.348 568.404 289.394 568.479 289.282C568.535 289.198 568.536 288.994 568.559 288.895C568.631 288.59 568.72 288.288 568.831 287.994C569.208 286.992 569.841 286.105 570.605 285.358C572.033 283.96 573.963 282.995 575.968 282.82C577.066 282.725 578.155 282.903 579.193 283.26C579.73 283.445 580.251 283.675 580.758 283.929C580.911 284.006 581.406 284.381 581.559 284.357C581.729 284.33 582.069 283.909 582.207 283.804C583.908 282.498 586.009 281.985 588.128 282C590.52 282.018 592.823 282.138 594.818 283.596C595.241 283.905 595.643 284.243 596.026 284.599C596.228 284.786 596.423 284.98 596.609 285.183C596.722 285.305 596.831 285.43 596.936 285.558C597.115 285.776 597.086 285.847 597.337 285.696C598.297 285.112 599.409 284.839 600.53 284.977C601.195 285.059 601.843 285.259 602.458 285.522C602.667 285.611 603.151 285.968 603.374 285.972C603.596 285.975 604.073 285.644 604.301 285.56C605.533 285.106 606.86 284.993 608.154 285.204C609.489 285.42 610.8 285.953 611.931 286.689C612.475 287.043 612.95 287.435 613.331 287.962C613.496 288.189 613.644 288.429 613.831 288.64C613.94 288.763 614.156 288.89 614.215 289.046C614.18 288.953 615.675 288.376 615.816 288.339C616.568 288.143 617.333 288.183 618.069 288.425C619.453 288.881 620.643 289.902 621.621 290.949C622.123 291.487 622.563 292.081 622.936 292.715C623.115 293.018 623.279 293.33 623.428 293.649C623.501 293.803 623.549 293.997 623.644 294.136C623.768 294.315 623.85 294.318 624.073 294.396C625.206 294.793 626.238 295.465 627.025 296.372C627.82 297.291 628.336 298.421 628.552 299.612C628.565 299.682 628.573 299.973 628.614 300.011C628.67 300.063 628.898 300.04 628.984 300.05C629.282 300.085 629.579 300.137 629.871 300.206C630.41 300.334 630.934 300.521 631.43 300.767C633.364 301.724 634.747 303.518 635.424 305.536C636.135 307.655 636.122 310.082 635.273 312.161C635.136 312.497 634.973 312.823 634.781 313.131C634.664 313.32 634.626 313.321 634.702 313.519C634.787 313.74 634.943 313.955 635.044 314.171C635.374 314.875 635.604 315.622 635.75 316.385C635.989 317.637 636.108 318.953 635.872 320.214C635.762 320.8 635.572 321.372 635.281 321.894C635.132 322.16 634.958 322.412 634.762 322.645C634.661 322.766 634.553 322.882 634.439 322.993C634.375 323.056 634.29 323.112 634.235 323.182C634.101 323.355 634.073 323.213 634.142 323.466C634.239 323.82 634.458 324.17 634.592 324.514C634.731 324.869 634.856 325.229 634.97 325.593C635.202 326.329 635.398 327.078 635.521 327.84C635.756 329.303 635.715 330.862 635.023 332.205C634.727 332.78 634.302 333.283 633.787 333.675C633.535 333.867 633.262 334.033 632.976 334.168C632.829 334.238 632.641 334.268 632.574 334.41C632.501 334.563 632.609 334.867 632.633 335.038C632.846 336.527 632.953 338.089 632.51 339.548C632.103 340.891 631.206 342.077 630.041 342.862C627.781 344.386 624.735 344.3 622.361 343.08C621.742 342.762 621.163 342.368 620.647 341.902C619.331 343.673 616.625 343.617 614.703 343.112C612.308 342.484 610.386 340.818 609.279 338.63C607.765 340.473 604.588 339.875 603.538 337.876C603.281 337.387 603.129 336.847 603.054 336.302C603.014 336.015 603.039 335.725 603.01 335.441C602.972 335.078 602.73 334.725 602.59 334.374C602.319 333.691 602.151 332.986 602.143 332.249C602.14 331.864 602.188 331.49 602.225 331.108C602.258 330.765 602.163 330.445 602.108 330.106C602.723 330.207 603.471 330.041 604.05 329.863C604.617 329.688 605.149 329.228 605.55 328.808C606.481 327.831 607.049 326.552 607.438 325.278C608.292 322.483 607.942 319.129 605.13 317.595C603.82 316.881 599.897 316.883 598.337 317.236C596.696 317.607 594.837 321.227 594.745 321.567C594.689 321.777 594.717 322.038 594.524 322.178C594.099 322.487 593.398 321.951 593.084 321.687C592.543 321.231 592.157 320.625 591.823 320.01C591.095 318.67 590.508 317.233 590.093 315.767C589.773 314.636 589.569 313.47 589.151 312.368C588.735 311.272 588.08 310.291 587.06 309.67C585.952 308.995 584.681 308.639 583.464 308.214C582.257 307.793 581.071 307.279 580.136 306.386C579.93 306.19 579.731 305.981 579.565 305.75C579.435 305.567 579.305 305.218 579.106 305.102C578.797 304.922 578.345 305.39 578.077 305.56C576.757 306.399 575.655 307.569 574.767 308.846C573.883 310.117 573.158 311.34 572.569 312.759C572.132 313.811 571.859 315.159 571.091 316.021C570.748 316.407 568.197 316.64 567.371 316.303C566.545 315.967 565.619 315.094 565.342 314.547C565.058 313.987 564.99 313.372 565.111 312.759C565.183 312.398 565.328 312.061 565.408 311.707C565.475 311.409 565.536 311.128 565.681 310.856C565.955 310.339 566.424 309.968 566.99 309.812C566.401 309.27 565.914 308.621 565.576 307.895C565.226 307.141 564.928 306.224 564.844 305.397C564.776 304.725 564.881 304.028 565.249 303.451C565.635 302.845 566.319 302.45 566.911 302.072C566.007 301.365 565.233 300.505 564.598 299.553C563.361 297.701 562.596 295.368 563.224 293.161Z" fill="#2A1847"/>
<path fill-rule="evenodd" clip-rule="evenodd" d="M679 497H564C555.163 497 548 504.164 548 513V605C548 613.837 555.163 621 564 621H679C687.837 621 695 613.837 695 605V513C695 504.164 687.837 497 679 497ZM663 525C665.209 525 667 526.791 667 529V589C667 591.209 665.209 593 663 593H580C577.791 593 576 591.209 576 589V529C576 526.791 577.791 525 580 525H663Z" fill="#221146"/>
<path fill-rule="evenodd" clip-rule="evenodd" d="M476.491 617.66C489.304 589.302 498.57 564.609 502.289 551.58C508.657 529.273 513.502 509.644 514.727 502.313C517.647 484.833 492.265 483.815 488.91 492.502C483.832 505.651 474.967 548.853 464.315 614.108L476.491 617.66ZM625.112 528.664C613.356 524.017 572.188 509.475 552.333 505.362C546.627 504.179 541.097 503.081 535.898 502.089C520.444 499.138 512.437 527.018 527.321 529.16C564.388 534.495 616.937 540.004 621.434 540.622C627.737 541.488 632.5 531.584 625.112 528.664Z" fill="#7B420D"/>
<path fill-rule="evenodd" clip-rule="evenodd" d="M526.413 494.417L590 462.047V455H582.438C520.92 470.676 489.485 480.722 488.131 485.138C488.117 485.186 488.103 485.233 488.091 485.281C488.06 485.322 488.03 485.362 488 485.404C475.808 502.17 468.507 584.027 466.111 590.156L489.472 593.642C498.409 560.504 527 537.418 526.241 497.729C526.446 496.565 526.497 495.461 526.413 494.417Z" fill="#124D5A"/>
<path fill-rule="evenodd" clip-rule="evenodd" d="M584.717 513.641C590.535 512.476 595.893 511.437 600.477 510.633C630.091 505.438 638.726 489.587 633.62 455H579.058C570.145 457.561 523.826 476.985 499.793 487.317C483.887 494.155 488.901 518.805 497.909 525.22C497.958 525.613 498.12 525.881 498.409 526C546.863 546.083 585.195 535.546 598 538.913L603.923 520.229L584.717 513.641Z" fill="#2C6E7C"/>
<path fill-rule="evenodd" clip-rule="evenodd" d="M621.092 525.694C624.267 525.998 626.521 526.475 627.853 527.125C629.474 527.915 631.707 529.339 634.553 531.395C633.636 533.275 625.395 550.173 609.829 582.089C604.831 581.282 602.851 579.375 603.888 576.367C604.925 573.36 605.761 570.849 606.397 568.835L607.385 540.15C607.404 539.598 607.867 539.166 608.419 539.185C608.428 539.185 608.438 539.186 608.447 539.186L612.86 539.464C615.367 537.434 617.021 535.598 617.823 533.955C618.473 532.621 618.833 530.515 618.902 527.637L618.902 527.637C618.929 526.533 619.845 525.659 620.95 525.686C620.997 525.687 621.045 525.69 621.092 525.694Z" fill="#E4E4E4"/>
<path fill-rule="evenodd" clip-rule="evenodd" d="M482.322 612.402C483.441 615.389 484 617.623 484 619.106C484 620.909 483.7 623.541 483.099 627C481.007 627 462.206 627 426.697 627C425.231 622.155 426.077 619.539 429.235 619.153C432.393 618.766 435.016 618.417 437.105 618.106L463.32 606.419C463.824 606.194 464.416 606.421 464.641 606.925C464.644 606.934 464.648 606.943 464.652 606.951L466.337 611.039C469.26 612.403 471.636 613.085 473.463 613.085C474.948 613.085 476.999 612.485 479.616 611.286L479.616 611.286C480.62 610.825 481.807 611.266 482.267 612.27C482.287 612.314 482.305 612.358 482.322 612.402Z" fill="#E4E4E4"/>
<path fill-rule="evenodd" clip-rule="evenodd" d="M531.956 439.123L503.628 466.758C495.385 470.274 488.632 474.156 483.367 478.404C482.183 479.832 480.895 482.569 486.465 481.344C492.035 480.12 497.949 479.082 498.996 480.894C500.043 482.705 496.958 485.481 498.893 487.852C500.183 489.433 504.521 484.405 511.907 472.77L541.364 455.403L531.956 439.123ZM657.692 443.02L636.795 443.102C649.698 484.756 656.664 506.857 657.692 509.406C660.006 515.14 655.109 523.874 653.015 528.567C659.835 531.619 659.109 520.317 667.712 524.32C675.565 527.973 681.538 534.593 690.611 528.995C691.726 528.306 692.949 525.715 689.995 523.69C682.638 518.645 672.035 509.815 670.602 506.909C668.648 502.945 664.345 481.649 657.692 443.02Z" fill="#7B420D"/>
<path fill-rule="evenodd" clip-rule="evenodd" d="M598.305 355.332L589.658 353.849C574.77 391.039 548.778 424.831 511.682 455.225L539.714 489.282C576.806 446.005 599.67 401.355 598.305 355.332Z" fill="#2A1847"/>
<path fill-rule="evenodd" clip-rule="evenodd" d="M636 464H559C576.839 420.625 585.759 383.779 585.759 353.461L608.986 350C627.24 379.359 632.395 415.505 636 464Z" fill="#DDE3E9"/>
<path fill-rule="evenodd" clip-rule="evenodd" d="M609.478 350.017C609.475 350.011 609.471 350.006 609.468 350H607.952C606.138 350.063 603.375 350.175 599.662 350.338L594.05 366.377C593.456 385.933 589.989 425.342 583.649 484.606H634.124C633.992 488.699 633.773 492.831 633.469 497H671C665.386 433.664 644.885 384.664 609.496 350L609.478 350.017V350.017Z" fill="#2F3676"/>
<path fill-rule="evenodd" clip-rule="evenodd" d="M630.79 432.233C629.353 457.748 625.757 475.337 620 485H634.111C634.729 466.643 633.622 449.054 630.79 432.233V432.233Z" fill="black" fill-opacity="0.1"/>
<path fill-rule="evenodd" clip-rule="evenodd" d="M622.889 454L598 442.43V454H622.889Z" fill="white" fill-opacity="0.2"/>
</svg>
