<svg width="1041" height="1077" viewBox="0 0 1041 1077" fill="none" xmlns="http://www.w3.org/2000/svg">
<path fill-rule="evenodd" clip-rule="evenodd" d="M344.933 0.545509C416.626 -6.32952 474.453 53.2797 533.023 94.7999C592.058 136.65 658.109 174.981 685.135 241.714C713.072 310.701 702.583 388.13 680.593 459.196C658.297 531.255 619.781 597.755 560.39 644.875C498.968 693.606 423.453 730.772 344.933 725.501C268.663 720.382 210.105 663.706 149.701 617.307C91.3834 572.511 13.9147 533.746 1.50094 461.697C-10.7743 390.452 55.2613 332.778 89.6984 269.056C116.958 218.615 141.971 170.159 181.567 128.503C230.35 77.1826 274.095 7.33851 344.933 0.545509Z" fill="#41288A" fill-opacity="0.44"/>
<g opacity="0.8">
<path fill-rule="evenodd" clip-rule="evenodd" d="M556.472 385.959C560.72 385.44 565.254 385.623 569.204 387.301C577.605 390.868 579.992 400.796 579.877 408.865C579.753 417.55 577.909 427.036 584.51 434.034C587.544 437.251 591.318 439.713 594.297 442.989C597.481 446.49 599.979 450.496 601.828 454.798C605.224 462.699 606.891 471.991 603.786 480.28C601.051 487.578 594.172 494.165 595.659 502.463C597.209 511.119 605.933 517.737 611.388 524.185C617.561 531.482 623.244 540.808 624.178 550.377C625.073 559.548 621.083 568.823 614.959 575.755C602.724 589.607 584.332 596.397 565.787 596.355C557.914 596.337 548.999 595.981 542.205 591.748C540.105 590.44 538.997 588.972 537.748 586.932C536.629 585.102 535.15 583.912 533.439 582.617C529.679 579.774 526.964 575.941 525.231 571.651C518.501 554.987 523.88 534.372 533.299 519.575C535.531 516.069 537.359 512.696 536.274 508.517C535.143 504.155 532.362 500.221 529.902 496.471C527.471 492.765 524.696 489.23 522.797 485.223C520.807 481.026 520.247 476.631 520.598 472.037C521.259 463.408 524.982 455.446 530.254 448.506C535.332 441.822 541.293 435.426 541.307 426.668C541.322 417.385 535.118 409.128 537.761 399.69C538.855 395.782 541.053 391.773 544.595 389.43C547.992 387.183 552.477 386.448 556.472 385.959Z" fill="#DDE3E9"/>
<path fill-rule="evenodd" clip-rule="evenodd" d="M553.697 400.799C553.776 399.552 555.254 398.805 556.418 399.13C557.95 399.558 557.921 400.99 557.88 402.266C557.756 406.187 558.323 409.997 559.266 413.802C561.224 421.712 564.843 428.999 567.71 436.597C570.575 444.189 571.92 452.027 570.239 460.06C568.655 467.635 566.166 475.012 564.544 482.596C563.115 489.28 561.595 496.329 563.771 502.996C565.865 509.413 570.495 514.64 573.829 520.439C580.73 532.445 583.792 545.763 584.202 559.469C584.392 565.834 584.221 572.257 582.745 578.499C581.895 582.093 580.754 586.951 577.675 589.432C576.255 590.577 573.827 590.972 572.632 589.278C571.51 587.688 572.494 585.228 572.85 583.533C574.393 576.2 574.703 568.705 574.334 561.259C573.976 554.046 573.125 546.845 570.855 539.957C568.749 533.564 565.55 527.822 561.784 522.23C557.947 516.531 553.957 510.82 552.372 504.068C550.761 497.209 552.07 490.231 553.82 483.504C555.67 476.388 558.094 469.477 560.6 462.554C563.042 455.808 563.908 449.426 562.56 442.365C559.897 428.417 552.768 415.325 553.697 400.799Z" fill="#C5CFD6"/>
<path fill-rule="evenodd" clip-rule="evenodd" d="M668.631 402.884C673.888 404.481 679.108 407.057 682.856 411.097C690.823 419.687 688.379 432.671 683.98 442.153C679.246 452.36 672.071 462.619 676.116 474.33C677.975 479.714 681.1 484.589 682.864 490.014C684.748 495.812 685.561 501.849 685.457 507.899C685.266 519.011 682.311 530.867 674.289 539.054C667.227 546.261 655.678 550.471 653.037 561.058C650.282 572.103 657.018 584.47 660.008 594.933C663.393 606.775 665.132 620.763 661.171 632.565C657.376 643.877 647.795 652.768 636.95 657.78C615.28 667.794 590.12 666.253 568.392 656.552C559.166 652.433 548.899 647.373 543.166 638.831C541.394 636.191 540.87 633.879 540.484 630.816C540.138 628.069 539.032 625.892 537.709 623.471C534.801 618.151 533.641 612.205 533.876 606.229C534.787 583.021 551.988 561.44 570.854 548.842C575.324 545.858 579.25 542.819 580.186 537.313C581.164 531.565 579.981 525.465 579.077 519.751C578.184 514.103 576.797 508.478 576.686 502.751C576.569 496.752 578.235 491.262 581.074 486.013C586.408 476.152 594.983 468.673 604.832 463.21C614.319 457.947 624.691 453.486 629.335 443.135C634.256 432.165 631.343 419.171 639.429 409.385C642.778 405.333 647.474 401.735 652.866 400.808C658.038 399.918 663.687 401.383 668.631 402.884Z" fill="#DDE3E9"/>
<path fill-rule="evenodd" clip-rule="evenodd" d="M657.893 421.025C658.639 419.591 660.759 419.48 661.949 420.476C663.516 421.786 662.732 423.466 662.017 424.956C659.819 429.534 658.488 434.344 657.598 439.344C655.746 449.738 656.163 460.265 655.538 470.767C654.913 481.259 652.382 491.247 646.211 499.878C640.393 508.017 633.621 515.449 627.755 523.58C622.584 530.746 617.116 538.296 616.17 547.333C615.259 556.031 617.937 564.647 618.799 573.263C620.584 591.099 617.192 608.477 610.495 624.923C607.385 632.56 603.822 640.076 598.829 646.695C595.954 650.506 592.076 655.66 587.176 656.984C584.917 657.595 581.871 656.79 581.361 654.157C580.881 651.686 583.32 649.288 584.623 647.469C590.266 639.593 594.553 630.88 598.019 621.868C601.377 613.139 604.151 604.165 605.104 594.818C605.988 586.143 605.253 577.666 603.777 569.069C602.274 560.308 600.599 551.453 602.28 542.625C603.987 533.658 609.171 526.081 614.739 519.031C620.628 511.575 627.081 504.662 633.635 497.777C640.023 491.069 644.376 483.965 646.496 474.897C650.684 456.982 649.202 437.74 657.893 421.025Z" fill="#C5CFD6"/>
<path fill-rule="evenodd" clip-rule="evenodd" d="M506.125 468.777C514.865 468.777 522.55 473.412 527.845 479.989C534.043 487.688 535.295 497.091 537.812 506.267C539.065 510.834 541.219 515.367 544.994 518.47C548.427 521.291 552.786 521.856 556.896 523.235C565.109 525.99 571.741 532.626 574.361 540.724C577.556 550.602 574.171 560.564 574.754 570.575C575.289 579.768 584.35 585.504 591.641 589.911C598.829 594.257 605.305 598.325 607.47 606.791C609.766 615.77 610.537 625.793 607.357 634.663C602.062 649.432 586.567 655.936 571.595 656.944C558.007 657.859 540.922 656.422 530.718 646.556C524.612 640.651 522.401 632.394 522.675 624.178C522.846 619.069 523.857 614.008 525.165 609.071C526.092 605.572 527.345 602.088 527.701 598.472C528.65 588.852 519.762 587.005 512.197 584.364C502.584 581.007 495.854 574.667 491.174 565.834C486.816 557.609 484.987 548.377 487.6 539.322C488.934 534.699 491.354 530.504 494.637 526.936C496.082 525.365 498.118 524.056 499.422 522.406C500.639 520.865 500.374 518.868 499.955 517.064C498.015 508.728 491.972 501.825 489.811 493.504C487.859 485.993 489.013 476.645 495.877 471.8C498.843 469.706 502.5 468.8 506.125 468.777Z" fill="#C5CFD6"/>
<path fill-rule="evenodd" clip-rule="evenodd" d="M518.035 490.497C527.299 500.369 529.817 513.763 530.556 526.745C530.97 534.025 530.539 541.703 532.677 548.764C534.507 554.808 538.795 559.428 543.216 563.794C552.114 572.583 562.037 581.519 564.64 594.239C566.167 601.705 565.136 609.415 567.246 616.798C569.165 623.509 572.543 630.102 576.652 635.769C579.961 640.332 584.271 643.826 587.888 648.08C588.991 649.379 590.572 651.29 590.116 653.123C589.583 655.27 586.85 655.95 584.91 655.612C580.388 654.826 576.582 650.507 573.626 647.366C569.302 642.775 565.628 637.836 562.642 632.296C559.327 626.143 556.658 619.614 555.518 612.712C554.334 605.551 554.923 598.088 552.221 591.215C547.673 579.651 536.643 572.827 528.668 563.814C518.732 552.584 520.214 538.606 521.232 524.791C521.791 517.199 522.346 508.626 518.512 501.694C517.048 499.048 513.784 496.581 513.155 493.574C512.578 490.818 515.725 488.034 518.035 490.497Z" fill="#AFB9C5"/>
<path fill-rule="evenodd" clip-rule="evenodd" d="M527.915 652.727C527.915 709.186 537.125 738.769 585.748 738.769C634.371 738.769 643.581 709.186 643.581 652.727H527.915Z" fill="#89C5CC"/>
</g>
<path fill-rule="evenodd" clip-rule="evenodd" d="M265.829 205.446C258.996 197.422 254.371 187.589 255.144 176.571C257.371 144.824 301.547 151.808 310.14 167.831C318.733 183.854 317.712 224.498 306.606 227.362C302.177 228.504 292.742 225.706 283.139 219.916L289.167 262.574H253.577L265.829 205.446Z" fill="#EDC8A6"/>
<path fill-rule="evenodd" clip-rule="evenodd" d="M278.147 203.214C273.734 211.688 267.63 218.07 261.532 218.07C249.949 218.07 241.714 202.579 241.714 185.923C241.714 185.338 241.725 184.756 241.748 184.179C229.496 192.59 220.053 209.169 203.841 209.169C181.785 209.169 173.026 164.665 203.841 164.665C224.798 164.665 235.107 167.722 243.991 172.242C245.743 167.3 248.415 163.146 251.682 160.244C252.468 159.359 253.673 158.512 255.227 157.727C256.178 157.207 257.161 156.784 258.172 156.465C263.53 154.495 271.29 153.106 279.959 152.803C281.577 152.746 283.167 152.73 284.718 152.751C284.743 144.579 291.373 137.963 299.547 137.963C307.737 137.963 314.376 144.605 314.376 152.798C314.376 160.721 308.167 167.193 300.35 167.611C295.879 168.991 290.134 170.004 283.763 170.432C284.382 172.759 284.718 175.402 284.718 178.39C284.718 181.028 284.427 183.825 283.891 186.666C282.509 185.023 280.662 183.95 278.786 183.95C273.54 183.95 269.889 188.268 269.889 192.851C269.889 198.669 273.246 202.877 278.147 203.214Z" fill="#100F33"/>
<path fill-rule="evenodd" clip-rule="evenodd" d="M235.46 416.855L308.244 601.142L357.06 756.942H376.337L301.707 416.855L235.46 416.855Z" fill="#997659"/>
<path fill-rule="evenodd" clip-rule="evenodd" d="M220.804 416.855C220.029 481.615 208.726 568.804 206.921 572.84C205.717 575.532 164.157 609.755 82.2405 675.51L95.5173 689.723C192.171 633.346 242.734 601.398 247.206 593.879C253.915 582.6 275.758 478.81 293.294 416.855H220.804Z" fill="#B28B67"/>
<path fill-rule="evenodd" clip-rule="evenodd" d="M80.4643 670.766C76.0052 672.342 72.9335 673.838 71.2492 675.251C69.2006 676.971 66.4975 679.822 63.14 683.804C65.134 686.181 83.0543 707.546 116.901 747.898C123.802 744.943 125.968 741.487 123.397 737.53C120.826 733.573 118.722 730.259 117.084 727.589L105.373 686.654C105.148 685.866 104.327 685.41 103.54 685.636C103.526 685.64 103.513 685.644 103.499 685.648L97.2496 687.631C92.9136 685.61 89.8746 683.561 88.1325 681.484C86.7171 679.796 85.4437 676.894 84.3123 672.777L84.3123 672.777C83.8781 671.197 82.2458 670.268 80.6664 670.702C80.5983 670.721 80.5309 670.742 80.4643 670.766Z" fill="#E4E4E4"/>
<path fill-rule="evenodd" clip-rule="evenodd" d="M349.167 749.749C347.508 754.18 346.678 757.494 346.678 759.694C346.678 762.369 347.124 766.273 348.015 771.405C351.117 771.405 378.997 771.405 431.653 771.405C433.827 764.217 432.572 760.336 427.889 759.763C423.207 759.19 419.317 758.672 416.219 758.21L377.345 740.873C376.597 740.54 375.72 740.876 375.387 741.624C375.381 741.637 375.375 741.65 375.37 741.663L372.871 747.727C368.536 749.75 365.014 750.762 362.303 750.762C360.101 750.762 357.06 749.872 353.18 748.093L353.18 748.093C351.691 747.41 349.931 748.064 349.248 749.554C349.219 749.618 349.192 749.683 349.167 749.749Z" fill="#E4E4E4"/>
<path fill-rule="evenodd" clip-rule="evenodd" d="M284.396 740.894L376.046 730.944L308.123 416.855H226.035L284.396 740.894Z" fill="#69A1AC"/>
<path fill-rule="evenodd" clip-rule="evenodd" d="M101.198 652.58L161.315 723.765C224.635 654.582 261.551 609.44 272.062 588.339C282.574 567.238 292.023 510.077 300.41 416.855H207.994C203.413 498.867 200.325 541.782 198.73 545.598C197.135 549.414 164.624 585.075 101.198 652.58Z" fill="#89C5CC"/>
<path fill-rule="evenodd" clip-rule="evenodd" d="M317.956 299.216L369.427 271.015C377.987 260.847 386.42 252.95 394.727 247.324C397.266 246.264 401.705 245.622 397.554 252.993C393.402 260.365 389.367 268.305 391.482 270.576C393.597 272.847 398.871 269.674 401.394 273.447C403.076 275.963 394.066 279.936 374.364 285.368L336.964 319.625L317.956 299.216ZM398.57 323.011L421.179 310.586C424.351 298.51 428.143 292.434 432.555 292.358C435.945 290.781 430.042 306.04 436.467 304.716C442.893 303.393 458.574 291.726 461.277 294.095C465.274 297.599 461.71 308.361 457.51 313.714C449.66 323.72 443.162 327.141 427.098 331.622C418.7 333.964 409.619 338.66 399.857 345.708L398.57 323.011Z" fill="#EDC8A6"/>
<path fill-rule="evenodd" clip-rule="evenodd" d="M292.889 292.934C310.918 292.744 334.959 288.934 360.611 272.645L370.685 295.12C352.991 312.687 328.111 327.12 306.357 326.509C289.213 326.027 280.451 305.282 292.889 292.934Z" fill="#BC7E06"/>
<path fill-rule="evenodd" clip-rule="evenodd" d="M317.164 328.976C336.304 333.752 368.4 328.12 413.452 312.083C424.627 335.21 429.793 351.698 428.95 361.547C390.301 381.743 357.177 390.748 329.886 391.342C330.754 407.541 328.783 422.955 322.161 437.039C308.549 465.994 228.844 439.179 202.044 444.457C185.262 389.932 217.711 367.774 217.737 332.886C217.766 294.68 248.432 235.872 252.944 235.872L294.09 235.872C296.36 265.05 307.787 297.207 317.164 328.976Z" fill="#F7AF23"/>
<path fill-rule="evenodd" clip-rule="evenodd" d="M800.38 466.537C807.213 458.513 811.838 448.68 811.065 437.662C808.839 405.915 764.663 412.899 756.07 428.922C747.476 444.945 748.498 485.589 759.603 488.453C764.032 489.595 773.468 486.797 783.07 481.007L777.043 523.665H812.633L800.38 466.537Z" fill="#F0C1AC"/>
<path fill-rule="evenodd" clip-rule="evenodd" d="M776.355 410.455C781.045 409.685 793.675 409.156 796.004 409.156C797.493 409.156 799.106 409.497 799.987 408.129C800.709 407.01 800.445 405.116 800.66 403.817C800.91 402.308 801.266 400.818 801.625 399.332C802.648 395.103 804.195 391.08 806.359 387.303C810.419 380.216 816.368 374.666 823.878 371.436C832.171 367.869 841.555 367.053 850.476 367.776C860.022 368.55 868.663 371.702 877.676 374.669C886.265 377.496 895.261 378.609 904.244 377.228C913.294 375.837 920.133 370.93 927.767 366.272C935.583 361.504 944.514 358.385 953.753 359.102C962.377 359.772 970.326 363.334 977.457 368.093C984.129 372.545 989.635 377.902 992.743 385.441C996.087 393.551 996.084 402.454 990.585 409.621C982.615 420.01 967.819 422.697 955.509 422.43C948.389 422.276 941.396 420.975 934.674 418.61C925.709 415.456 917.962 410.109 909.575 405.771C905.639 403.735 901.57 402.063 897.306 400.859C893.167 399.69 889.091 399.154 885.345 401.655C881.381 404.3 877.829 406.899 873.295 408.555C868.945 410.144 864.337 411.033 859.703 410.997C850.686 410.927 841.797 408.117 833.04 406.234C825.898 404.699 818.257 403.169 810.976 404.645C807.938 405.261 803.5 406.532 802.403 409.691C820.871 413.039 828.125 435.889 822.918 452.662C820.108 461.716 803.216 472.299 796.649 467.539C792.488 464.524 795.014 460.566 796.649 457.952C799.779 452.948 800.85 446.52 795.057 443.036C790.06 440.031 784.806 447.167 784.707 447.159C783.334 447.051 771.466 440.337 763.29 430.539C755.224 431.017 754 425.697 755.926 421.346C757.852 416.995 769.874 411.518 776.355 410.455Z" fill="#D14222"/>
<path d="M827.462 904.917C764.4 904.917 713.278 856.101 713.278 795.882C713.278 735.664 764.4 686.847 827.462 686.847C890.524 686.847 941.646 735.664 941.646 795.882C941.646 856.101 890.524 904.917 827.462 904.917Z" fill="#221146"/>
<path fill-rule="evenodd" clip-rule="evenodd" d="M611.685 888.095C630.685 846.026 644.426 809.394 649.941 790.067C659.385 756.975 666.57 727.855 668.385 716.981C672.715 691.049 635.076 689.539 630.101 702.426C622.571 721.932 609.426 786.021 593.63 882.825L611.685 888.095ZM832.076 756.071C814.643 749.178 753.595 727.605 724.152 721.503C715.691 719.749 707.49 718.12 699.78 716.647C676.864 712.271 664.991 753.629 687.062 756.807C742.029 764.721 819.954 772.893 826.623 773.81C835.969 775.096 843.032 760.403 832.076 756.071Z" fill="#F0C1AC"/>
<path fill-rule="evenodd" clip-rule="evenodd" d="M685.715 705.266L780.009 657.247V646.793H768.795C677.57 670.048 630.954 684.951 628.947 691.502C628.926 691.572 628.906 691.643 628.888 691.714C628.842 691.774 628.797 691.835 628.752 691.896C610.674 716.769 599.846 838.201 596.292 847.294L630.936 852.464C644.188 803.304 686.586 769.058 685.459 710.181C685.764 708.454 685.84 706.816 685.715 705.266Z" fill="#141F79"/>
<path fill-rule="evenodd" clip-rule="evenodd" d="M772.174 733.785C780.802 732.057 788.747 730.515 795.546 729.322C839.459 721.617 852.265 698.101 844.694 646.793H763.783C750.566 650.592 681.879 679.407 646.241 694.734C622.654 704.878 630.089 741.445 643.446 750.962C643.519 751.546 643.759 751.942 644.187 752.12C716.041 781.912 772.883 766.28 791.872 771.275L800.655 743.558L772.174 733.785Z" fill="#1C2B9E"/>
<path fill-rule="evenodd" clip-rule="evenodd" d="M826.113 751.666C830.821 752.117 834.164 752.825 836.14 753.789C838.544 754.962 841.856 757.074 846.077 760.126C844.718 762.915 832.497 787.981 809.416 835.325C802.004 834.128 799.067 831.298 800.605 826.837C802.142 822.375 803.383 818.651 804.325 815.663L805.786 773.11C805.815 772.291 806.501 771.65 807.319 771.678C807.333 771.679 807.347 771.679 807.361 771.68L813.906 772.092C817.624 769.082 820.077 766.358 821.265 763.921C822.23 761.941 822.764 758.817 822.866 754.548L822.866 754.548C822.905 752.91 824.264 751.614 825.902 751.654C825.972 751.655 826.043 751.659 826.113 751.666Z" fill="#E4E4E4"/>
<path fill-rule="evenodd" clip-rule="evenodd" d="M620.332 880.295C621.991 884.725 622.821 888.04 622.821 890.239C622.821 892.915 622.375 896.818 621.484 901.95C618.382 901.95 590.503 901.95 537.846 901.95C535.672 894.762 536.927 890.882 541.61 890.308C546.292 889.735 550.183 889.218 553.28 888.756L592.154 871.419C592.902 871.085 593.779 871.421 594.113 872.17C594.118 872.183 594.124 872.195 594.129 872.208L596.628 878.272C600.963 880.296 604.486 881.307 607.196 881.307C609.398 881.307 612.439 880.418 616.319 878.638L616.319 878.638C617.808 877.955 619.568 878.609 620.251 880.099C620.28 880.163 620.308 880.228 620.332 880.295Z" fill="#E4E4E4"/>
<path fill-rule="evenodd" clip-rule="evenodd" d="M688.068 606.172L634.336 582.565C624.923 573.182 615.834 566.05 607.068 561.17C604.447 560.336 599.969 560.083 604.747 567.064C609.524 574.046 614.236 581.604 612.327 584.05C610.418 586.497 604.888 583.797 602.703 587.775C601.246 590.428 610.568 593.601 630.669 597.294L670.911 628.16L688.068 606.172ZM905.302 612.674L874.915 618.705C905.474 675.678 921.863 705.874 924.08 709.292C929.07 716.984 924.414 731.08 922.695 738.503C933.483 741.015 929.228 724.772 942.88 728.163C955.341 731.259 965.907 739.203 977.526 728.489C978.954 727.172 980 723.055 975.13 720.943C962.995 715.682 945.068 705.83 942.161 702.005C938.197 696.79 925.91 667.012 905.302 612.674Z" fill="#F0C1AC"/>
<path fill-rule="evenodd" clip-rule="evenodd" d="M792.324 498.939L779.501 496.739C751.572 523.842 740.174 588.956 721.561 597.575C703.963 605.724 679.017 597.839 649.365 587.191L640.284 607.488C667.226 636.647 724.623 661.282 747.889 647.219C785.085 624.734 793.672 544.425 792.324 498.939Z" fill="#095853"/>
<path fill-rule="evenodd" clip-rule="evenodd" d="M848.222 660.145C796.807 660.145 758.987 660.145 734.763 660.145C729.578 660.145 730.555 652.655 731.305 648.876C739.954 605.262 773.719 558.247 773.719 496.163L806.446 491.029C833.515 534.581 842.877 588.203 848.222 660.145Z" fill="#252729"/>
<path fill-rule="evenodd" clip-rule="evenodd" d="M859.539 615.986C882.668 657.723 902.11 687.772 917.863 706.132L941.646 701.472C926.326 606.429 881.964 536.281 808.558 491.029H802.651L795.599 491.029C766.219 591.218 758.12 657.974 771.301 691.298H873.432C871.816 666.914 866.635 641.128 859.539 615.986H859.539Z" fill="#20928B"/>
<path fill-rule="evenodd" clip-rule="evenodd" d="M895.286 552.579C902.119 544.555 906.744 534.722 905.971 523.704C903.745 491.957 859.569 498.941 850.975 514.964C842.382 530.987 843.403 571.631 854.509 574.495C858.938 575.637 868.373 572.839 877.976 567.049L871.949 609.707H907.538L895.286 552.579Z" fill="#7B420D"/>
<path fill-rule="evenodd" clip-rule="evenodd" d="M835.209 492.751C835.946 490.159 837.928 487.94 840.599 487.282C841.247 487.123 841.916 487.058 842.583 487.085C842.822 487.094 842.889 487.163 843.001 486.996C843.084 486.872 843.086 486.569 843.12 486.423C843.226 485.97 843.359 485.523 843.522 485.087C844.081 483.6 845.021 482.284 846.153 481.175C848.271 479.101 851.133 477.67 854.107 477.411C855.734 477.269 857.35 477.534 858.888 478.063C859.685 478.338 860.457 478.679 861.209 479.056C861.436 479.17 862.171 479.726 862.398 479.69C862.649 479.651 863.153 479.026 863.357 478.87C865.88 476.933 868.996 476.172 872.139 476.195C875.686 476.221 879.101 476.399 882.06 478.562C882.686 479.02 883.282 479.521 883.85 480.049C884.149 480.327 884.439 480.616 884.715 480.916C884.882 481.097 885.044 481.282 885.2 481.473C885.466 481.796 885.423 481.902 885.794 481.676C887.218 480.811 888.868 480.406 890.529 480.611C891.516 480.732 892.476 481.028 893.388 481.419C893.698 481.551 894.417 482.081 894.747 482.086C895.076 482.091 895.784 481.6 896.122 481.475C897.948 480.801 899.916 480.635 901.835 480.947C903.814 481.268 905.759 482.058 907.436 483.15C908.243 483.675 908.947 484.257 909.512 485.038C909.756 485.375 909.977 485.732 910.253 486.044C910.415 486.228 910.736 486.415 910.823 486.647C910.771 486.508 912.988 485.653 913.197 485.599C914.312 485.307 915.447 485.366 916.538 485.726C918.59 486.401 920.355 487.917 921.806 489.47C922.551 490.268 923.203 491.15 923.756 492.089C924.021 492.54 924.264 493.002 924.486 493.475C924.593 493.704 924.664 493.991 924.806 494.197C924.989 494.463 925.111 494.468 925.442 494.584C927.122 495.173 928.653 496.169 929.819 497.515C930.998 498.877 931.763 500.555 932.084 502.321C932.103 502.425 932.114 502.856 932.175 502.913C932.259 502.99 932.596 502.956 932.724 502.971C933.167 503.023 933.606 503.1 934.039 503.203C934.838 503.392 935.616 503.67 936.352 504.034C939.22 505.454 941.271 508.115 942.275 511.11C943.328 514.253 943.309 517.853 942.05 520.937C941.847 521.435 941.605 521.919 941.321 522.376C941.146 522.657 941.09 522.657 941.203 522.952C941.33 523.28 941.56 523.598 941.71 523.918C942.2 524.964 942.542 526.072 942.758 527.204C943.112 529.061 943.288 531.012 942.938 532.883C942.776 533.752 942.493 534.602 942.061 535.375C941.841 535.77 941.584 536.144 941.293 536.49C941.142 536.67 940.982 536.842 940.814 537.006C940.718 537.1 940.592 537.182 940.511 537.287C940.312 537.543 940.27 537.333 940.373 537.708C940.516 538.234 940.842 538.752 941.041 539.263C941.246 539.79 941.432 540.323 941.601 540.863C941.945 541.954 942.236 543.066 942.417 544.196C942.766 546.367 942.705 548.68 941.679 550.672C941.24 551.524 940.61 552.272 939.847 552.853C939.473 553.138 939.068 553.383 938.644 553.584C938.425 553.688 938.147 553.732 938.047 553.944C937.94 554.171 938.099 554.621 938.135 554.875C938.451 557.083 938.609 559.401 937.953 561.565C937.349 563.557 936.019 565.317 934.291 566.482C930.94 568.741 926.424 568.614 922.903 566.805C921.985 566.333 921.127 565.748 920.361 565.057C918.41 567.684 914.397 567.601 911.546 566.852C907.995 565.92 905.145 563.449 903.504 560.204C901.259 562.938 896.547 562.051 894.99 559.085C894.609 558.359 894.383 557.559 894.272 556.749C894.213 556.324 894.251 555.894 894.207 555.472C894.151 554.934 893.791 554.411 893.585 553.89C893.183 552.877 892.933 551.83 892.922 550.737C892.916 550.167 892.989 549.611 893.043 549.045C893.092 548.535 892.95 548.06 892.87 547.557C893.781 547.707 894.891 547.462 895.749 547.198C896.591 546.938 897.38 546.255 897.974 545.632C899.354 544.184 900.197 542.286 900.774 540.396C902.039 536.25 901.52 531.274 897.351 528.999C895.409 527.939 889.59 527.942 887.277 528.466C884.845 529.017 882.087 534.386 881.952 534.891C881.868 535.203 881.91 535.589 881.623 535.798C880.993 536.255 879.953 535.461 879.488 535.069C878.686 534.393 878.114 533.493 877.618 532.58C876.538 530.593 875.667 528.462 875.052 526.286C874.578 524.609 874.275 522.879 873.655 521.244C873.039 519.618 872.067 518.164 870.555 517.242C868.911 516.24 867.026 515.712 865.222 515.082C863.432 514.458 861.674 513.695 860.287 512.37C859.982 512.079 859.686 511.769 859.441 511.427C859.247 511.156 859.055 510.637 858.76 510.466C858.301 510.199 857.631 510.893 857.234 511.145C855.276 512.389 853.643 514.125 852.325 516.02C851.015 517.905 849.94 519.719 849.066 521.824C848.418 523.385 848.014 525.385 846.874 526.664C846.365 527.235 842.583 527.581 841.358 527.082C840.133 526.583 838.76 525.288 838.349 524.477C837.928 523.646 837.827 522.733 838.007 521.824C838.113 521.289 838.329 520.789 838.447 520.264C838.546 519.822 838.637 519.405 838.852 519.001C839.259 518.234 839.954 517.683 840.793 517.453C839.92 516.648 839.197 515.685 838.696 514.609C838.176 513.49 837.736 512.13 837.611 510.903C837.509 509.906 837.666 508.873 838.211 508.016C838.784 507.117 839.798 506.531 840.675 505.97C839.335 504.921 838.188 503.645 837.245 502.233C835.412 499.487 834.277 496.025 835.209 492.751Z" fill="#2A1847"/>
<path fill-rule="evenodd" clip-rule="evenodd" d="M1006.89 795.141H836.359C823.255 795.141 812.632 805.768 812.632 818.877V955.356C812.632 968.465 823.255 979.091 836.359 979.091H1006.89C1020 979.091 1030.62 968.465 1030.62 955.356V818.877C1030.62 805.768 1020 795.141 1006.89 795.141ZM983.167 836.678C986.443 836.678 989.098 839.335 989.098 842.612V931.62C989.098 934.898 986.443 937.554 983.167 937.554H860.085C856.809 937.554 854.154 934.898 854.154 931.62V842.612C854.154 839.335 856.809 836.678 860.085 836.678H983.167Z" fill="#221146"/>
<path fill-rule="evenodd" clip-rule="evenodd" d="M706.591 974.136C725.591 932.068 739.332 895.436 744.847 876.109C754.291 843.016 761.475 813.897 763.291 803.022C767.621 777.09 729.982 775.58 725.007 788.468C717.477 807.974 704.331 872.063 688.536 968.866L706.591 974.136ZM926.982 842.113C909.549 835.22 848.501 813.647 819.057 807.545C810.597 805.791 802.396 804.162 794.686 802.689C771.769 798.313 759.896 839.671 781.968 842.849C836.935 850.763 914.86 858.935 921.528 859.852C930.875 861.138 937.937 846.445 926.982 842.113Z" fill="#7B420D"/>
<path fill-rule="evenodd" clip-rule="evenodd" d="M780.621 791.308L874.915 743.289V732.835H863.701C772.476 756.09 725.86 770.993 723.853 777.544C723.831 777.614 723.812 777.685 723.794 777.756C723.748 777.816 723.703 777.876 723.658 777.937C705.579 802.811 694.752 924.243 691.198 933.335L725.841 938.506C739.093 889.346 781.492 855.1 780.365 796.222C780.669 794.495 780.746 792.857 780.621 791.308Z" fill="#124D5A"/>
<path fill-rule="evenodd" clip-rule="evenodd" d="M867.08 819.827C875.708 818.099 883.653 816.557 890.451 815.364C934.365 807.659 947.171 784.143 939.6 732.835H858.689C845.472 736.633 776.785 765.449 741.147 780.776C717.559 790.919 724.995 827.487 738.352 837.004C738.425 837.588 738.665 837.984 739.093 838.162C810.947 867.954 867.789 852.322 886.778 857.317L895.561 829.6L867.08 819.827Z" fill="#2C6E7C"/>
<path fill-rule="evenodd" clip-rule="evenodd" d="M921.019 837.708C925.727 838.159 929.069 838.867 931.046 839.831C933.45 841.004 936.762 843.116 940.983 846.167C939.623 848.957 927.403 874.023 904.322 921.367C896.91 920.17 893.973 917.34 895.511 912.879C897.048 908.417 898.288 904.692 899.231 901.705L900.692 859.151C900.72 858.333 901.407 857.692 902.225 857.72C902.239 857.72 902.253 857.721 902.267 857.722L908.811 858.134C912.53 855.124 914.983 852.4 916.171 849.963C917.136 847.983 917.67 844.859 917.771 840.59L917.771 840.59C917.81 838.952 919.17 837.656 920.807 837.695C920.878 837.697 920.949 837.701 921.019 837.708Z" fill="#E4E4E4"/>
<path fill-rule="evenodd" clip-rule="evenodd" d="M715.238 966.336C716.897 970.767 717.727 974.082 717.727 976.281C717.727 978.956 717.281 982.86 716.39 987.992C713.288 987.992 685.408 987.992 632.751 987.992C630.578 980.804 631.833 976.923 636.515 976.35C641.198 975.777 645.088 975.26 648.186 974.798L687.06 957.461C687.808 957.127 688.685 957.463 689.018 958.212C689.024 958.224 689.029 958.237 689.035 958.25L691.534 964.314C695.869 966.337 699.391 967.349 702.102 967.349C704.304 967.349 707.345 966.46 711.225 964.68L711.225 964.68C712.714 963.997 714.474 964.651 715.157 966.141C715.186 966.205 715.213 966.27 715.238 966.336Z" fill="#E4E4E4"/>
<path fill-rule="evenodd" clip-rule="evenodd" d="M788.84 709.281L746.833 750.277C734.61 755.493 724.595 761.252 716.788 767.554C715.033 769.673 713.121 773.732 721.382 771.916C729.642 770.099 738.412 768.56 739.964 771.248C741.517 773.935 736.942 778.053 739.811 781.57C741.724 783.914 748.157 776.457 759.11 759.196L802.792 733.432L788.84 709.281ZM975.296 715.063L944.307 715.185C963.441 776.977 973.771 809.763 975.296 813.544C978.727 822.051 971.466 835.007 968.361 841.97C978.474 846.497 977.396 829.731 990.154 835.669C1001.8 841.088 1010.66 850.908 1024.11 842.604C1025.77 841.583 1027.58 837.738 1023.2 834.734C1012.29 827.25 996.564 814.151 994.44 809.84C991.543 803.96 985.161 772.368 975.296 715.063Z" fill="#7B420D"/>
<path fill-rule="evenodd" clip-rule="evenodd" d="M887.23 584.981L874.407 582.78C852.331 637.951 813.787 688.081 758.776 733.169L800.345 783.691C855.349 719.491 889.254 653.254 887.23 584.981Z" fill="#2A1847"/>
<path fill-rule="evenodd" clip-rule="evenodd" d="M943.128 746.186H828.945C855.398 681.841 868.625 627.18 868.625 582.205L903.069 577.071C930.138 620.623 937.783 674.245 943.128 746.186Z" fill="#DDE3E9"/>
<path fill-rule="evenodd" clip-rule="evenodd" d="M903.798 577.095C903.794 577.087 903.789 577.079 903.785 577.071H901.536C898.846 577.163 894.748 577.33 889.243 577.572L880.92 601.365C880.04 630.375 874.899 688.839 865.497 776.755H940.346C940.15 782.827 939.827 788.956 939.376 795.141H995.03C986.705 701.184 956.304 628.494 903.825 577.071L903.798 577.095V577.095Z" fill="#2F3676"/>
<path fill-rule="evenodd" clip-rule="evenodd" d="M935.402 699.061C933.272 736.912 927.938 763.004 919.402 777.339H940.327C941.243 750.107 939.601 724.014 935.402 699.061V699.061Z" fill="black" fill-opacity="0.1"/>
<path fill-rule="evenodd" clip-rule="evenodd" d="M923.686 731.352L886.778 714.187V731.352H923.686Z" fill="white" fill-opacity="0.2"/>
</svg>
